<?xml version="1.0" encoding="utf-8"?>
<!-- Generator: Adobe Illustrator 22.1.0, SVG Export Plug-In . SVG Version: 6.00 Build 0)  -->
<svg version="1.1" id="Layer_1" xmlns="http://www.w3.org/2000/svg" xmlns:xlink="http://www.w3.org/1999/xlink" x="0px" y="0px"
	 viewBox="0 0 184.1 46.4" style="enable-background:new 0 0 184.1 46.4;" xml:space="preserve">
<style type="text/css">
	.st0{fill:#3DCFD3;}
	.st1{fill:#FFFFFF;}
	.st2{font-family:'ArialMT';}
	.st3{font-size:28px;}
</style>
<g id="Logo" transform="translate(-258.98 -51.39)">
	<path class="st0" d="M282.2,51.5c-11,0-20.3,7.7-22.6,18.1v5.9H272v-0.7h0.1c0-0.1,0-0.1,0-0.2c0-5.6,4.5-10.1,10.1-10.1
		c5.5,0,10,4.4,10.1,9.9h0.1v1.1h12.9c0-0.3,0-0.5,0-0.8C305.3,61.9,295,51.6,282.2,51.5z"/>
	<text transform="matrix(1 0 0 1 323.868 84.3009)" class="st1 st2 st3">Creative</text>
</g>
<rect x="0.7" y="24" class="st0" width="12.3" height="18.6"/>
<polygon class="st0" points="33.4,23.9 33.4,26.5 33.4,26.5 33.4,42.6 46.4,42.6 46.4,23.9 "/>
</svg>
