<svg xmlns="http://www.w3.org/2000/svg" viewBox="0 0 40.88 83.81"><defs><style>.cls-1{fill:#0d71ba;}.cls-2{fill:#13384f;}</style></defs><title>Asset 1</title><g id="Layer_2" data-name="Layer 2"><g id="Layer_1-2" data-name="Layer 1"><path class="cls-1" d="M15.88,47.07c0-9.32,9-17,20.64-17.9a2,2,0,0,0,1.86-2V2.26A2,2,0,0,0,37.08.38a7.42,7.42,0,0,0-9.28,4.4L.62,63.23A9.44,9.44,0,0,0,7.07,75.72l30.52,7.93a7.37,7.37,0,0,0,.79.16V67a2,2,0,0,0-1.86-2C24.93,64.05,15.88,56.39,15.88,47.07Z"/><path class="cls-2" d="M22.88,47.07c0,8.56,7.13,15,11,15s7-6.94,7-15.5-3.14-14.5-7-14.5S22.88,38.51,22.88,47.07Z"/></g></g></svg>